# xmcd
#
# Track frame offsets: 
#        150
#        10807
#        25098
#        34213
#        50364
#        61464
#        74146
#        88560
#        104648
#        115799
#        127015
#        139545
#        155420
#
# Disc length: 2331 seconds
#
# Revision: 0
# Processed by: cddbd v1.5.2PL0 Copyright (c) Steve Scherf et al.
# Submitted via: ExactAudioCopy v0.99pb5
#
DISCID=b309190d
DTITLE=Γιάννης Πάριος - ΤΑ ΝΗΣΙΩΤΙΚΑ (Real news) CD4
DYEAR=1900
DGENRE=ΔΗΜΟΤΙΚΑ
TTITLE0=Παναγιά μου ένα παιδί
TTITLE1=Μάουκας (Θα πάρω μια ψαρόβαρκα)
TTITLE2=Ο μηχανικός
TTITLE3=Στην Πάρο και στη Νάξο
TTITLE4=Κατεργάρα αγάπη
TTITLE5=Ο δεντρολίβανος
TTITLE6=Ερι έρι
TTITLE7=Σωθήκανε τα γιατρικά
TTITLE8=Ο μυλωνάς
TTITLE9=Κοτσάκια (Να σ' αγαπώ ήντα 'θελα)
TTITLE10=Ικαριώτικο
TTITLE11=Γυαλίτισσα (Αμοργιανό)
TTITLE12=Στο 'πα και στο ξαναλέω
EXTD=
EXTT0=
EXTT1=
EXTT2=
EXTT3=
EXTT4=
EXTT5=
EXTT6=
EXTT7=
EXTT8=
EXTT9=
EXTT10=
EXTT11=
EXTT12=
PLAYORDER=
